<?xml version="1.0" encoding="UTF-8"?>
<svg id="Layer_2" data-name="Layer 2" xmlns="http://www.w3.org/2000/svg" viewBox="0 0 91.16 89.53">
  <defs>
    <style>
      .cls-1 {
        fill: none;
        stroke: #000;
        stroke-miterlimit: 10;
        stroke-width: 2px;
      }
    </style>
  </defs>
  <g id="Layer_1-2" data-name="Layer 1">
    <path class="cls-1" d="M27.69,14.3c-6,3.08,13.74-4.76,16.17-6.01C51.58,3.87,60.23-.25,69.26,1.35c10.37,1.37,20.24,11.44,20.86,21.39.29,3.94-.88,7.51-2.14,11.29-2,5.74-3.88,11.83-5.41,18.02-2.75,11.46-5.37,21.4-12.36,30.04-2.07,2.17-6.53,6.75-12,6.15-.8-.08-3.11-.33-5-2.05-7.25-6.51,3.51-25.53-8.64-27.64-10.92,1.83-.19,24.99-6.02,29.33-9.1,3.55-15.81-8.28-20.34-16.04-4.46-7.59-2.95-5.31-7-19.49C6.55,36.01-.3,31.16,1.21,22.6c1.5-8.52,7.87-13.73,9.25-14.86C19.89.02,34.34-.35,47.33,6.42"/>
  </g>
</svg>