<?xml version="1.0" encoding="UTF-8"?>
<svg id="Layer_2" data-name="Layer 2" xmlns="http://www.w3.org/2000/svg" viewBox="0 0 89.16 87.53">
  <defs>
    <style>
      .cls-1 {
        stroke-width: 0px;
      }
    </style>
  </defs>
  <g id="Layer_1-2" data-name="Layer 1">
    <path class="cls-1" d="M46.28,5.4s.03.01.04.02l-.35.14c.11-.05.21-.11.31-.16,6.82-3.61,14.25-6.42,21.97-5.05,10.37,1.37,20.24,11.44,20.86,21.39.29,3.94-.88,7.5-2.14,11.29-2,5.74-3.88,11.83-5.4,18.02-2.75,11.46-5.37,21.4-12.36,30.04-2.07,2.18-6.53,6.75-12,6.16-.8-.08-3.11-.33-5-2.05-7.25-6.51,3.51-25.53-8.64-27.65-10.92,1.83-.19,24.99-6.02,29.33-9.1,3.55-15.81-8.28-20.34-16.04-4.47-7.59-2.95-5.32-7-19.49C5.55,35.01-1.3,30.16.21,21.6,1.71,13.08,8.08,7.87,9.46,6.74,18.87-.97,33.3-1.35,46.28,5.4h0Z"/>
  </g>
</svg>