<?xml version="1.0" encoding="UTF-8"?>
<svg id="Layer_2" data-name="Layer 2" xmlns="http://www.w3.org/2000/svg" viewBox="0 0 89.16 95.33">
  <defs>
    <style>
      .cls-1, .cls-2 {
        fill: none;
        stroke: #fff;
        stroke-miterlimit: 10;
      }

      .cls-3 {
        stroke-width: 0px;
      }

      .cls-2 {
        stroke-width: 2px;
      }
    </style>
  </defs>
  <g id="Layer_1-2" data-name="Layer 1">
    <g>
      <path class="cls-3" d="M45.97,6.05h-.02s.02,0,.02,0c.11-.06.21-.11.31-.17,6.82-3.93,14.25-6.99,21.97-5.5,10.37,1.49,20.24,12.46,20.86,23.29.29,4.29-.88,8.18-2.14,12.3-2,6.26-3.88,12.89-5.4,19.63-2.75,12.48-5.37,23.31-12.36,32.72-2.07,2.37-6.53,7.35-12,6.7-.8-.09-3.11-.35-5-2.23-7.25-7.09,3.51-27.81-8.64-30.11-10.92,1.99-.19,27.22-6.02,31.94-9.1,3.87-15.81-9.02-20.34-17.47-4.46-8.27-2.95-5.79-7-21.23C5.55,38.12-1.3,32.84.21,23.52,1.71,14.24,8.08,8.56,9.46,7.33,18.87-1.07,33.3-1.48,46.28,5.88c.01,0,.03,0,.04.02l-.35.15h0Z"/>
      <path class="cls-2" d="M30.16,46.22c7.95,1.43,14.76,2.38,15.26,2.34.49-.04,7.04-.96,14.74-2.34"/>
      <path class="cls-2" d="M86.16,38.33c.06,2.21-9.91,4.75-20,6.76"/>
      <path class="cls-2" d="M24.16,45.08c-10.08-2.01-19.94-4.57-20-6.75"/>
      <rect class="cls-1" x="24.16" y="40.33" width="6" height="11"/>
      <rect class="cls-1" x="60.16" y="40.33" width="6" height="11"/>
    </g>
  </g>
</svg>