<?xml version="1.0" encoding="UTF-8"?>
<svg id="Layer_2" data-name="Layer 2" xmlns="http://www.w3.org/2000/svg" viewBox="0 0 91.16 97.33">
  <defs>
    <style>
      .cls-1 {
        fill: none;
        stroke: #000;
        stroke-miterlimit: 10;
        stroke-width: 2px;
      }
    </style>
  </defs>
  <g id="Layer_1-2" data-name="Layer 1">
    <g>
      <path class="cls-1" d="M27.69,15.48c-6,3.35,13.74-5.19,16.17-6.54C51.58,4.12,60.23-.36,69.26,1.38c10.37,1.49,20.24,12.46,20.86,23.29.29,4.29-.88,8.18-2.14,12.3-2,6.25-3.88,12.88-5.41,19.62-2.75,12.49-5.37,23.31-12.36,32.72-2.07,2.37-6.53,7.35-12,6.7-.8-.09-3.11-.36-5-2.23-7.25-7.09,3.51-27.8-8.64-30.11-10.92,1.99-.19,27.21-6.02,31.94-9.1,3.87-15.81-9.02-20.34-17.47-4.46-8.27-2.95-5.79-7-21.23C6.55,39.13-.3,33.84,1.21,24.53c1.5-9.28,7.87-14.96,9.25-16.19C19.89-.07,34.34-.47,47.33,6.9"/>
      <path class="cls-1" d="M31.16,47.22c7.95,1.43,14.76,2.38,15.26,2.34.49-.04,7.04-.96,14.74-2.34"/>
      <path class="cls-1" d="M87.16,39.33c.06,2.21-9.91,4.75-20,6.76"/>
      <path class="cls-1" d="M25.16,46.08c-10.08-2.01-19.94-4.57-20-6.75"/>
      <rect class="cls-1" x="25.16" y="41.33" width="6" height="11"/>
      <rect class="cls-1" x="61.16" y="41.33" width="6" height="11"/>
    </g>
  </g>
</svg>