<?xml version="1.0" encoding="UTF-8"?>
<svg id="Layer_2" data-name="Layer 2" xmlns="http://www.w3.org/2000/svg" viewBox="0 0 209.57 99">
  <defs>
    <style>
      .cls-1, .cls-2 {
        stroke-width: 0px;
      }

      .cls-3 {
        fill: none;
        stroke: #fff;
      }

      .cls-3, .cls-4 {
        stroke-miterlimit: 10;
        stroke-width: 2px;
      }

      .cls-4 {
        stroke: #000;
      }

      .cls-2 {
        fill: #fff;
      }
    </style>
  </defs>
  <g id="Layer_1-2" data-name="Layer 1">
    <g>
      <path class="cls-1" d="M0,69.55l.28,19.2c.08,5.68,4.71,10.25,10.4,10.25h188.49c5.75,0,10.4-4.66,10.4-10.4v-21.17c0-4.62-3.75-8.37-8.37-8.37h-70.23c-3.48,0-6.72,1.79-8.57,4.74l-2.38,3.8c-2.15,3.43-5.89,5.55-9.94,5.63l-19.07.37c-5.3.1-10.24-2.69-12.88-7.29l-.48-.84c-1.91-3.33-5.44-5.4-9.28-5.46l-58.06-.82C4.59,59.13-.08,63.8,0,69.55Z"/>
      <g>
        <path class="cls-4" d="M166.29,46.98h3.88c1.79,0,3.24,1.38,3.24,3.08v10.48h-10.36v-10.48c0-1.7,1.45-3.08,3.24-3.08Z"/>
        <path class="cls-1" d="M39.24,46.11h-3.88c-1.79,0-3.24,1.38-3.24,3.08v10.48h10.36v-10.48c0-1.7-1.45-3.08-3.24-3.08Z"/>
        <g>
          <g>
            <path class="cls-1" d="M36.86,37.8c3.13.04,25.39-2.6,26.01-3.11,2.41-5.49,5.15-11.6,5.38-17.49.11-2.89-.37-5.72-1.78-8.41C61.43-.76,47.06-2.8,37.71,4.01c-.03.03-.07.04-.1.07C26.01-1.42,6.79,0,4.65,14.92c-.72,6.82,3.59,12.27,5.75,18.41.16.3.35.6.58.89.55.19,2.03.55,3.71.91,2.54.55,5.52,1.12,6.36,1.14.29-.14,12.9,1.5,15.81,1.53Z"/>
            <path class="cls-1" d="M101.44,37.8c3.13.04,25.39-2.6,26.01-3.11,2.41-5.49,5.15-11.6,5.38-17.49.11-2.89-.37-5.72-1.78-8.41-5.03-9.54-19.41-11.59-28.75-4.77-.03.03-.07.04-.1.07C90.59-1.42,71.37,0,69.23,14.92c-.72,6.82,3.59,12.27,5.75,18.41.16.3.35.6.58.89.55.19,2.03.55,3.71.91,2.54.55,5.52,1.12,6.36,1.14.29-.14,12.9,1.5,15.81,1.53Z"/>
          </g>
          <path class="cls-1" d="M165.16,37.8c3.13.04,25.39-2.6,26.01-3.11,2.41-5.49,5.15-11.6,5.38-17.49.11-2.89-.37-5.72-1.78-8.41-5.03-9.54-19.41-11.59-28.75-4.77-.03.03-.07.04-.1.07C154.31-1.42,135.1,0,132.96,14.92c-.72,6.82,3.59,12.27,5.75,18.41.16.3.35.6.58.89.55.19,2.03.55,3.71.91,2.54.55,5.52,1.12,6.36,1.14.29-.14,12.9,1.5,15.81,1.53Z"/>
        </g>
        <g>
          <path class="cls-3" d="M32.16,53.86c-.76.48,9.94-6.23,9.18-5.75"/>
          <path class="cls-3" d="M32.81,59.04c-.76.48,9.94-6.23,9.18-5.75"/>
        </g>
        <path class="cls-2" d="M42.48,60.68H10.76l3.38,3.29c2.22,7.61,5.92,19.83,14.39,21.71,5.79,1.29,4.41-7.64,4.05-11.21-.26-2.56-.34-10.42,3.84-9.3,3.49.94,4.01,6.52,4.03,9.6.02,3.42-.66,7.82,1.23,10.84,1.58,2.53,4.08,1.5,5.94-.09,2.7-2.31,4.66-5.83,6.49-8.91,2.29-3.84,4.3-7.98,5.19-12.47l4.53-3.45h-21.36Z"/>
        <g>
          <path class="cls-3" d="M173.37,54.73c.76.48-9.94-6.23-9.18-5.75"/>
          <path class="cls-3" d="M172.72,59.91c.76.48-9.94-6.23-9.18-5.75"/>
        </g>
        <path class="cls-2" d="M163.05,60.55h10.36s21.36,0,21.36,0l-3.38,3.29c-2.22,7.61-5.92,19.83-14.39,21.71-5.79,1.29-4.41-7.64-4.05-11.21.26-2.56.34-10.42-3.84-9.3-3.49.94-4.01,6.52-4.03,9.6-.02,3.42.66,7.82-1.23,10.84-1.58,2.53-4.08,1.5-5.94-.09-2.7-2.31-4.66-5.83-6.49-8.91-2.29-3.84-4.3-7.98-5.19-12.47l-4.53-3.45h21.36Z"/>
      </g>
    </g>
  </g>
</svg>