<?xml version="1.0" encoding="UTF-8"?>
<svg id="Layer_2" data-name="Layer 2" xmlns="http://www.w3.org/2000/svg" viewBox="0 0 99 89.96">
  <defs>
    <style>
      .cls-1 {
        fill: none;
        stroke: #000;
        stroke-miterlimit: 10;
        stroke-width: 2px;
      }
    </style>
  </defs>
  <g id="Layer_1-2" data-name="Layer 1">
    <g>
      <path class="cls-1" d="M80.81,55.9c-2.05,9.6-8.2,18.61-13.99,26.37-4.07,5.45-11.83,11.21-14.51,1.31-2.08-7.7,1.72-17.45-3.89-24.06-2.5-2.95-5.55-3.21-7.54.3-2.13,3.75-1.71,8.23-1.18,12.31.83,6.42,1.74,17.87-8.13,14.13-7.41-2.81-12.12-10.06-15.41-16.89-4.62-9.6-6.47-20.19-10.81-29.9C1.9,31.76-1.15,23.04,3.01,14.98,9.06,3.27,25.68.96,37.33,3.4c2.43.51,4.83,1.25,7.13,2.2"/>
      <path class="cls-1" d="M27.58,13.34c15.85-8.51,40.52-20.46,55.74-4.49,4.77,5.01,8.04,12.32,5.9,19.25"/>
      <ellipse class="cls-1" cx="82.5" cy="42" rx="15.5" ry="14"/>
      <path class="cls-1" d="M74.69,43.03l2.65,3.97c.37.56,1.12.72,1.68.37l10.88-6.7c.6-.37.77-1.16.38-1.75l-.63-.94c-.37-.55-1.1-.72-1.67-.38l-7.97,4.78c-.57.34-1.3.18-1.67-.38l-.65-.98c-.38-.57-1.15-.73-1.72-.34l-.93.62c-.57.38-.73,1.15-.34,1.72Z"/>
    </g>
  </g>
</svg>