<?xml version="1.0" encoding="UTF-8"?>
<svg id="Layer_2" data-name="Layer 2" xmlns="http://www.w3.org/2000/svg" viewBox="0 0 97 87.96">
  <defs>
    <style>
      .cls-1, .cls-2 {
        stroke-width: 0px;
      }

      .cls-2 {
        fill: #fff;
      }
    </style>
  </defs>
  <g id="Layer_1-2" data-name="Layer 1">
    <g>
      <path class="cls-1" d="M82.32,7.86C71.76-3.22,56.66-.87,43.11,4.46c-2.19-.88-4.46-1.58-6.77-2.06C24.68-.04,8.06,2.26,2.01,13.98c-4.17,8.06-1.12,16.78,2.33,24.48,4.34,9.71,6.2,20.31,10.81,29.9,3.28,6.83,8,14.08,15.41,16.89,9.87,3.74,8.96-7.71,8.13-14.13-.53-4.09-.95-8.57,1.18-12.31,1.99-3.51,5.04-3.25,7.54-.3,5.61,6.62,1.81,16.37,3.89,24.06,2.68,9.9,10.44,4.14,14.51-1.31,5.8-7.76,11.94-16.76,13.99-26.37l8.4-27.8c2.15-6.92-1.13-14.24-5.9-19.25Z"/>
      <ellipse class="cls-2" cx="81.5" cy="41" rx="15.5" ry="14"/>
      <path class="cls-1" d="M73.69,42.03l2.65,3.97c.37.56,1.12.72,1.68.37l10.88-6.7c.6-.37.77-1.16.38-1.75l-.63-.94c-.37-.55-1.1-.72-1.67-.38l-7.97,4.78c-.57.34-1.3.18-1.67-.38l-.65-.98c-.38-.57-1.15-.73-1.72-.34l-.93.62c-.57.38-.73,1.15-.34,1.72Z"/>
    </g>
  </g>
</svg>