<?xml version="1.0" encoding="UTF-8"?>
<svg id="Layer_2" data-name="Layer 2" xmlns="http://www.w3.org/2000/svg" viewBox="0 0 85.11 110.29">
  <defs>
    <style>
      .cls-1 {
        fill: none;
        stroke: #000;
        stroke-miterlimit: 10;
        stroke-width: 2px;
      }
    </style>
  </defs>
  <g id="Layer_1-2" data-name="Layer 1">
    <g>
      <g>
        <g>
          <path class="cls-1" d="M38.26,65.01c-1.03.66,13.42-8.54,12.38-7.88"/>
          <path class="cls-1" d="M39.13,72.12c-1.03.66,13.42-8.54,12.38-7.88"/>
        </g>
        <path class="cls-1" d="M52.18,73H9.39l4.56,4.51c2.99,10.43,7.99,27.2,19.42,29.78,7.81,1.77,5.95-10.48,5.47-15.38-.35-3.52-.46-14.3,5.18-12.76,4.71,1.28,5.41,8.94,5.44,13.17.03,4.69-.89,10.72,1.66,14.87,2.13,3.47,5.5,2.06,8.01-.13,3.64-3.17,6.28-8,8.76-12.23,3.09-5.26,5.8-10.95,7-17.11l6.11-4.73h-28.82Z"/>
        <path class="cls-1" d="M47.81,54.39h-5.24c-2.41,0-4.37,1.89-4.37,4.23v14.38h13.97v-14.38c0-2.34-1.95-4.23-4.37-4.23Z"/>
      </g>
      <path class="cls-1" d="M43.13,51.56c4.09.05,33.13-3.48,33.94-4.16,3.15-7.35,6.71-15.51,7.02-23.4.15-3.86-.48-7.65-2.33-11.25C75.2-.01,56.44-2.75,44.25,6.37c-.04.04-.09.06-.13.09C28.97-.9,3.9,1,1.1,20.96c-.94,9.12,4.69,16.41,7.5,24.62.21.4.46.8.75,1.19.72.25,2.65.73,4.84,1.22,3.31.74,7.2,1.5,8.3,1.53.38-.19,16.83,2,20.63,2.05Z"/>
      <path class="cls-1" d="M76,46.56c-.09-3-32.23-7.06-33.23-7s-32.89,4-32.8,7"/>
    </g>
  </g>
</svg>