<?xml version="1.0" encoding="UTF-8"?>
<svg id="Layer_2" data-name="Layer 2" xmlns="http://www.w3.org/2000/svg" viewBox="0 0 90.62 93.1">
  <defs>
    <style>
      .cls-1 {
        fill: none;
        stroke: #000;
        stroke-miterlimit: 10;
        stroke-width: 2px;
      }
    </style>
  </defs>
  <g id="Layer_1-2" data-name="Layer 1">
    <g>
      <path class="cls-1" d="M87.11,13.89C80.11-.11,60.11-3.11,47.11,6.89c-.04.04-.1.06-.14.1C30.83-1.09,4.1,1,1.11,22.89c-1,10,5,18,8,27,1,2,3,4,5,4,3.6.17,7.16.27,10.71.34,3.36,6.33,17.82,33.4,21.79,37.81,1.51,1.68,18.72-31.75,21.97-38.11,4.17-.21,10.26.77,13.53-2.04,5-12,11-26,5-38Z"/>
      <path class="cls-1" d="M29.02,60.31c13.17-1.89,26.42-3.24,39.56-5.41"/>
      <path class="cls-1" d="M33.11,69c9.99-1.75,20.03-3.23,30-5.11"/>
      <path class="cls-1" d="M31.45,64.41c11.67-1.69,23.23-4.22,35.02-4.92"/>
      <path class="cls-1" d="M36.11,73.89c8.25-1.51,16.46-3.22,24.69-4.77"/>
      <path class="cls-1" d="M37.54,78.18c6.52-1.13,13.06-2.16,19.55-3.45"/>
      <path class="cls-1" d="M41.11,82.89c4.49-.88,8.99-1.77,13.49-2.58"/>
      <line class="cls-1" x1="13.11" y1="53.89" x2="68.11" y2="53.89"/>
    </g>
  </g>
</svg>