<?xml version="1.0" encoding="UTF-8"?>
<svg id="Layer_2" data-name="Layer 2" xmlns="http://www.w3.org/2000/svg" viewBox="0 0 88 111">
  <defs>
    <style>
      .cls-1, .cls-2 {
        fill: none;
        stroke: #000;
        stroke-miterlimit: 10;
      }

      .cls-3 {
        stroke-width: 0px;
      }

      .cls-2 {
        stroke-width: 2px;
      }
    </style>
  </defs>
  <g id="Layer_1-2" data-name="Layer 1">
    <g>
      <path class="cls-2" d="M72.5,33c-.14,0-.28.01-.42.02-3.4-12.64-15.79-22.02-30.58-22.02s-26.61,8.95-30.32,21.16c-.54-.1-1.1-.16-1.68-.16-4.69,0-8.5,3.58-8.5,8s3.81,8,8.5,8c.57,0,1.13-.06,1.68-.16,3.72,12.2,15.88,21.16,30.32,21.16s26.52-8.89,30.29-21.03c.24.02.47.03.71.03,4.69,0,8.5-3.36,8.5-7.5s-3.81-7.5-8.5-7.5Z"/>
      <g>
        <circle class="cls-2" cx="78" cy="10" r="9"/>
        <g>
          <line class="cls-2" x1="78" y1="3.84" x2="78" y2="16.16"/>
          <line class="cls-2" x1="84.16" y1="10" x2="71.84" y2="10"/>
        </g>
      </g>
      <path class="cls-2" d="M52.38,72.55c-1.37-2.37-4-3.75-6.72-3.43-1.3.15-2.61.23-3.95.23-1.01,0-2.02-.05-3.01-.13-2.72-.24-5.34,1.03-6.7,3.39l-15.57,26.98c-2.67,4.63.67,10.41,6.01,10.41h39.55c5.34,0,8.68-5.78,6.01-10.41l-15.61-27.04Z"/>
      <circle class="cls-3" cx="53" cy="34" r="2"/>
      <circle class="cls-3" cx="29" cy="34" r="2"/>
      <path class="cls-1" d="M31,50c6.44,2.62,13.57,2.62,20,0"/>
    </g>
  </g>
</svg>