<?xml version="1.0" encoding="UTF-8"?>
<svg id="Layer_2" data-name="Layer 2" xmlns="http://www.w3.org/2000/svg" viewBox="0 0 86 109">
  <defs>
    <style>
      .cls-1, .cls-2 {
        fill: none;
        stroke: #fff;
        stroke-miterlimit: 10;
      }

      .cls-3, .cls-4 {
        stroke-width: 0px;
      }

      .cls-2 {
        stroke-width: 2px;
      }

      .cls-4 {
        fill: #fff;
      }
    </style>
  </defs>
  <g id="Layer_1-2" data-name="Layer 1">
    <g>
      <path class="cls-3" d="M71.5,32c-.14,0-.28.01-.42.02-3.4-12.64-15.79-22.02-30.58-22.02S13.89,18.95,10.18,31.16c-.54-.1-1.1-.16-1.68-.16-4.69,0-8.5,3.58-8.5,8s3.81,8,8.5,8c.57,0,1.13-.06,1.68-.16,3.72,12.2,15.88,21.16,30.32,21.16s26.52-8.89,30.29-21.03c.24.02.47.03.71.03,4.69,0,8.5-3.36,8.5-7.5s-3.81-7.5-8.5-7.5Z"/>
      <circle class="cls-3" cx="77" cy="9" r="9"/>
      <g>
        <line class="cls-2" x1="77" y1="2.84" x2="77" y2="15.16"/>
        <line class="cls-2" x1="83.16" y1="9" x2="70.84" y2="9"/>
      </g>
      <path class="cls-3" d="M51.38,71.55c-1.37-2.37-4-3.75-6.72-3.43-1.3.15-2.61.23-3.95.23-1.01,0-2.02-.05-3.01-.13-2.72-.24-5.34,1.03-6.7,3.39l-15.57,26.98c-2.67,4.63.67,10.41,6.01,10.41h39.55c5.34,0,8.68-5.78,6.01-10.41l-15.61-27.04Z"/>
      <circle class="cls-4" cx="52" cy="33" r="2"/>
      <circle class="cls-4" cx="28" cy="33" r="2"/>
      <path class="cls-1" d="M30,49c6.44,2.62,13.57,2.62,20,0"/>
    </g>
  </g>
</svg>