<?xml version="1.0" encoding="UTF-8"?>
<svg id="Layer_2" data-name="Layer 2" xmlns="http://www.w3.org/2000/svg" viewBox="0 0 89.16 104.53">
  <defs>
    <style>
      .cls-1 {
        stroke: #c1272d;
      }

      .cls-1, .cls-2 {
        fill: none;
        stroke-miterlimit: 10;
      }

      .cls-3 {
        stroke-width: 0px;
      }

      .cls-2 {
        stroke: #93278f;
      }
    </style>
  </defs>
  <g id="Layer_1-2" data-name="Layer 1">
    <g>
      <g>
        <path class="cls-3" d="M46.01,22.55s-.02,0-.03.01c.01-.01.02-.01.03-.01l.27-.15c6.82-3.61,14.26-6.42,21.97-5.05,10.37,1.37,20.24,11.44,20.86,21.39.29,3.94-.88,7.5-2.14,11.29-2,5.74-3.88,11.83-5.4,18.02-2.75,11.46-5.37,21.4-12.36,30.04-2.07,2.18-6.53,6.75-12,6.16-.8-.08-3.11-.33-5-2.05-7.25-6.51,3.51-25.53-8.64-27.65-10.92,1.83-.19,24.99-6.02,29.33-9.1,3.55-15.81-8.28-20.34-16.04-4.46-7.59-2.95-5.32-7-19.49C5.55,52.01-1.3,47.16.21,38.6c1.5-8.52,7.87-13.73,9.25-14.86,9.41-7.71,23.85-8.09,36.82-1.34,0,.01.03.01.04.02l-.31.13h0Z"/>
        <path class="cls-2" d="M44.41,40.25c5.96-3.19,12.64-6.15,19.61-5,8.01.99,15.63,8.24,16.11,15.41.22,2.84-.68,5.41-1.65,8.14-1.55,4.14-3,8.52-4.17,12.98-2.12,8.26-3.29,18.11-8.69,24.34-1.6,1.57-3.53,4.31-7.76,3.88-.62-.06-2.57-5.88-2.91-7.76-1.94-10.67-2.25-24.67-11.64-26.19-8.43,1.32-8.73,27.16-8.73,31.05-3.88,7.76-9.11-7.99-12.61-13.58-3.44-5.47-2.69-4.34-5.82-14.55-3.6-11.77-5.85-12.23-4.68-18.39,1.16-6.14,6.08-9.9,7.14-10.71,7.28-5.56,18.44-5.83,28.47-.95"/>
        <path class="cls-1" d="M32.16,99s-2.93-32.25-.11-44c3.11-13,46.11-47,46.11-47"/>
      </g>
      <rect class="cls-3" x="76.54" y="1.65" width="11" height="6" rx="3" ry="3" transform="translate(17.27 55.22) rotate(-41.23)"/>
    </g>
  </g>
</svg>