<?xml version="1.0" encoding="UTF-8"?>
<svg id="Layer_2" data-name="Layer 2" xmlns="http://www.w3.org/2000/svg" viewBox="0 0 98.3 135.21">
  <defs>
    <style>
      .cls-1, .cls-2 {
        fill: none;
        stroke: #000;
        stroke-miterlimit: 10;
      }

      .cls-2 {
        stroke-width: 2px;
      }
    </style>
  </defs>
  <g id="Layer_1-2" data-name="Layer 1">
    <g>
      <path class="cls-2" d="M47.93,44.31s-.03,0-.04-.02c-2.78-1.38-5.62-2.45-8.46-3.2"/>
      <path class="cls-2" d="M47.89,44.29c1.27-.65,2.56-1.26,3.88-1.83,3.01-1.31,6.13-2.38,9.32-2.92h.01c2.87-.5,5.79-.58,8.76-.09,10.37,1.31,20.23,10.96,20.86,20.5.29,3.78-.88,7.2-2.14,10.82-2,5.51-3.88,11.34-5.41,17.27-2.74,10.99-5.36,20.51-12.36,28.8-2.07,2.08-6.53,6.47-12,5.89-.8-.08-3.11-.32-5-1.96-7.25-6.24,3.52-24.47-8.64-26.49-10.92,1.74-.19,23.94-6.02,28.1-9.09,3.4-15.8-7.93-20.34-15.37-4.46-7.27-2.95-5.09-7-18.68C7.15,72.67.3,68.02,1.81,59.82c1.5-8.16,7.87-13.16,9.25-14.24,5.1-4,11.67-5.94,18.68-5.85"/>
      <g>
        <path class="cls-1" d="M44.66,23.42c5.06-5.47,12.2-13.27,17.79-19.1,1.42-1.34,2.74-2.67,5.08-3.19,3.99-.78,8.89,2.14,9.07,4.95-.08,3.12-3.94,5.36-6.64,7.96-5.78,5.02-13.34,11.61-18.64,16.14"/>
        <path class="cls-1" d="M44.92,35.93c-4.49,4.35-8.98,8.75-15.3,12.18-1.03.5-2.35,1.35-3.41,1.02-.72-.48-.39-1.48-.24-2.23,1.37-5.97,7.75-11.52,12.3-16.63"/>
        <path class="cls-1" d="M51.77,42.46c-2.59-1.92-4.87-3.92-7.31-6.09-1.99-1.77-4.1-3.65-6.57-5.68l-.57-.46c-5.64-4.83-11.8-10.11-16.8-14.38-4.36-4.14-10.65-7.5-8.48-11.08l.07-.11C13.49,2.49,17.28-.02,21.28.59c2.33.52,3.76,2.13,5.15,3.45,4.74,4.88,11.66,11.86,18.62,18.96,2.25,2.29,4.51,4.59,6.7,6.83,3.36,3.45,6.56,6.77,9.33,9.69t.01.02h.01"/>
        <path class="cls-1" d="M45.26,29.51c1.66.05,2.06,1.43.17,1.61-2.19.2-2.6-1.47-.45-1.61h.28Z"/>
      </g>
      <path class="cls-2" d="M97.6,134.5c-4.15-4.06-8.88-12.84-18.06-11.43-6.73,1-14.51,8.92-22.89,6.52-5.6-1.86-7.61-12.32-9.7-14.98-.73-.44-1.09.73-1.32,1.14-1.21,3.08-2.5,6.91-4.23,9.97-1.52,2.46-3.16,4.4-7.01,4.13-5.28-.46-10.15-5.41-16.21-5.75-8.08-.18-12.85,6.2-17.59,9.78"/>
    </g>
  </g>
</svg>