<?xml version="1.0" encoding="UTF-8"?>
<svg id="Layer_2" data-name="Layer 2" xmlns="http://www.w3.org/2000/svg" viewBox="0 0 98.3 134.72">
  <defs>
    <style>
      .cls-1, .cls-2 {
        stroke-width: 0px;
      }

      .cls-2 {
        fill: #fff;
      }

      .cls-3 {
        fill: none;
        stroke: #000;
        stroke-miterlimit: 10;
        stroke-width: 2px;
      }
    </style>
  </defs>
  <g id="Layer_1-2" data-name="Layer 1">
    <g>
      <path class="cls-3" d="M47.93,43.81s-.03,0-.04-.02c-2.78-1.38-5.62-2.45-8.46-3.2"/>
      <path class="cls-1" d="M47.89,43.79c1.27-.65,2.56-1.26,3.88-1.83,3.01-1.31,6.13-2.38,9.32-2.92h.01c2.87-.5,5.79-.58,8.76-.09,10.37,1.31,20.23,10.96,20.86,20.5.29,3.78-.88,7.2-2.14,10.82-2,5.51-3.88,11.34-5.41,17.27-2.74,10.99-5.36,20.51-12.36,28.8-2.07,2.08-6.53,6.47-12,5.89-.8-.08-3.11-.32-5-1.96-7.25-6.24,3.52-24.47-8.64-26.49-10.92,1.74-.19,23.94-6.02,28.1-9.09,3.4-15.8-7.93-20.34-15.37-4.46-7.27-2.95-5.09-7-18.68C7.15,72.17.3,67.52,1.81,59.32c1.5-8.16,7.87-13.16,9.25-14.24,5.1-4,11.67-5.94,18.68-5.85"/>
      <path class="cls-1" d="M67.53.63c-2.35.52-3.66,1.86-5.08,3.19-5.59,5.83-12.73,13.64-17.79,19.1l6.67,6.77c5.3-4.54,12.86-11.12,18.64-16.15,2.7-2.59,6.55-4.84,6.64-7.95-.19-2.82-5.09-5.73-9.08-4.96ZM65.87,13.75c-3.92,4.28-8.21,6.73-9.57,5.48s.72-5.73,4.64-10,8.2-6.73,9.56-5.48-.71,5.73-4.63,10Z"/>
      <path class="cls-1" d="M44.92,35.43c-4.49,4.35-8.98,8.75-15.3,12.18-1.03.5-2.35,1.35-3.41,1.02-.72-.48-.39-1.48-.24-2.23,1.37-5.97,7.75-11.52,12.3-16.63"/>
      <path class="cls-1" d="M61.09,39.02c-2.77-2.92-5.97-6.24-9.33-9.69-2.19-2.24-4.45-4.54-6.7-6.83-6.96-7.09-13.88-14.08-18.62-18.96-1.39-1.32-2.82-2.93-5.15-3.45-4-.61-7.79,1.9-9.17,4.06l-.07.12c-2.17,3.57,4.12,6.94,8.48,11.08,5,4.27,11.16,9.55,16.8,14.38.19.16.38.31.57.46,2.47,2.03,4.58,3.91,6.57,5.69,2.44,2.16,4.72,4.16,7.31,6.08l9.32-2.92s0-.01-.01-.02ZM32.39,18.3c-1.2,1.41-5.75-.5-10.16-4.26-4.41-3.77-7.02-7.95-5.82-9.36,1.2-1.41,5.75.5,10.16,4.27,4.41,3.76,7.02,7.95,5.82,9.35Z"/>
      <path class="cls-2" d="M45.26,29.01c1.66.05,2.06,1.43.17,1.61-2.19.2-2.6-1.47-.45-1.61h.28Z"/>
      <path class="cls-3" d="M97.6,134c-4.15-4.06-8.88-12.84-18.06-11.43-6.73,1-14.51,8.92-22.89,6.52-5.6-1.86-7.61-12.32-9.7-14.98-.73-.44-1.09.73-1.32,1.14-1.21,3.08-2.5,6.91-4.23,9.97-1.52,2.46-3.16,4.4-7.01,4.13-5.28-.46-10.15-5.41-16.21-5.75-8.08-.18-12.85,6.2-17.59,9.78"/>
    </g>
  </g>
</svg>