<?xml version="1.0" encoding="UTF-8"?>
<svg id="Layer_2" data-name="Layer 2" xmlns="http://www.w3.org/2000/svg" viewBox="0 0 104 109.78">
  <defs>
    <style>
      .cls-1 {
        fill: none;
        stroke: #000;
        stroke-miterlimit: 10;
        stroke-width: 2px;
      }
    </style>
  </defs>
  <g id="Layer_1-2" data-name="Layer 1">
    <g>
      <path class="cls-1" d="M102.96,44.64c-.47-7.29-6.16-14.64-13.36-18.42-.32,8.65-4.13,17.61-7.48,25.66-.87.75-31.83,4.61-36.19,4.56-4.06-.05-21.59-2.45-22-2.25-1.17-.02-5.32-.86-8.85-1.67,1.98,4.97,5.94,10.59,8.98,20.98,4.05,13.82,2.54,11.6,7,19,4.53,7.57,11.24,19.1,20.34,15.64,5.83-4.23-4.9-26.81,6.02-28.59,12.15,2.06,1.39,20.61,8.64,26.95,1.89,1.68,4.2,1.92,5,2,5.47.58,9.93-3.88,12-6,6.99-8.43,9.61-18.11,12.36-29.29,1.52-6.03,3.4-11.97,5.41-17.56,1.26-3.69,2.43-7.17,2.14-11.01Z"/>
      <path class="cls-1" d="M45.92,56.45c4.36.05,35.32-3.81,36.19-4.56,3.36-8.06,7.16-17.01,7.48-25.66.16-4.23-.51-8.39-2.48-12.34C80.11-.11,60.11-3.11,47.11,6.89c-.04.04-.1.06-.14.1C30.83-1.09,4.1,1,1.11,22.89c-1,10,5,18,8,27,.22.44.49.88.8,1.3.76.28,2.83.81,5.16,1.34,3.53.81,7.68,1.65,8.85,1.67.41-.21,17.94,2.19,22,2.25Z"/>
      <path class="cls-1" d="M35.95,59.83c-1-1,13,13,12,12"/>
      <path class="cls-1" d="M44.95,59.83c-1-1,13,13,12,12"/>
    </g>
  </g>
</svg>