<?xml version="1.0" encoding="UTF-8"?>
<svg id="Layer_2" data-name="Layer 2" xmlns="http://www.w3.org/2000/svg" viewBox="0 0 98.9 89.96">
  <defs>
    <style>
      .cls-1 {
        fill: none;
        stroke: #000;
        stroke-miterlimit: 10;
        stroke-width: 2px;
      }
    </style>
  </defs>
  <g id="Layer_1-2" data-name="Layer 1">
    <g>
      <path class="cls-1" d="M80.81,55.9c-2.05,9.6-8.2,18.61-13.99,26.37-4.07,5.45-11.83,11.21-14.51,1.31-2.08-7.7,1.72-17.45-3.89-24.06-2.5-2.95-5.55-3.21-7.54.3-2.13,3.75-1.71,8.23-1.18,12.31.83,6.42,1.74,17.87-8.13,14.13-7.41-2.81-12.12-10.06-15.41-16.89-4.62-9.6-6.47-20.19-10.81-29.9C1.9,31.76-1.15,23.04,3.01,14.98,9.06,3.27,25.68.96,37.33,3.4c2.43.51,4.83,1.25,7.13,2.2"/>
      <path class="cls-1" d="M27.58,13.34c15.85-8.51,40.52-20.46,55.74-4.49,4.77,5.01,8.04,12.32,5.9,19.25"/>
      <polygon class="cls-1" points="89.07 50.35 85.84 52.24 84.07 55.7 82.3 52.24 79.07 50.35 82.3 48.46 84.07 44.99 85.84 48.46 89.07 50.35"/>
      <polygon class="cls-1" points="96.9 36.68 91.73 39.67 88.9 45.12 86.07 39.67 80.9 36.68 86.07 33.7 88.9 28.25 91.73 33.7 96.9 36.68"/>
    </g>
  </g>
</svg>